<?xml version="1.0" standalone="yes"?>
<svg xmlns="http://www.w3.org/2000/svg" width="720" height="720">
<path style="fill:#081a25; stroke:none;" d="M0 0L0 720L720 720L720 0L0 0z"/>
<path style="fill:#ebba4d; stroke:none;" d="M181 222C184.691 223.092 188.455 221.265 192 220.001C200.863 216.84 217.836 207.832 225.348 217.189C230.898 224.102 232.346 236.573 234.438 245C237.604 257.751 241.978 270.412 245.769 283C262.973 340.119 277.477 398.35 296.167 455C302.235 473.39 308.07 492.259 312.874 511C314.404 516.967 318.941 524.917 315.681 530.957C311.263 539.146 296.926 540.273 289 543.19C278.682 546.987 264.118 553.567 253 552.891C247.681 552.568 243.978 547.374 238.91 547.576C232.681 547.825 225.815 551.411 220 553.46C213.779 555.651 207.282 556.991 201 559C215.962 582.226 237.595 605.95 263 617.88C278.624 625.217 294.982 627 312 627C351.831 627 390.82 613.03 422 588.091C433.593 578.819 444.69 569.841 455.285 559.424C460.282 554.512 466.55 550.186 468 543C470.301 544.222 472.533 545.159 475 546C471.607 542.933 466.363 541.639 464.603 536.985C462.279 530.836 466.981 522.656 469.13 517L487.13 470C508.589 413.56 530.733 357.296 552.655 301C559.031 284.627 565.539 268.299 572.078 252C574.86 245.066 576.635 235.751 582.329 230.533C589.394 224.059 600.652 231.122 608 234.281C622.493 240.512 637.458 245.615 652 251.717C662.373 256.07 669.639 258.412 673 270C676.064 256.532 656.132 251.665 647 248.192C632.927 242.841 618.94 237.283 605 231.603C599.444 229.34 592.204 224.856 586.004 226.667C577.604 229.122 573.369 242.296 572 250C571.34 245.557 573.27 241.492 573.287 237C573.326 226.642 572.735 216.231 574.12 205.911C575.243 197.551 577.979 189.378 578.829 181C580.526 164.293 577.829 146.781 569.56 132C545.935 89.7674 485.848 89.1959 444 97.5509C382.201 109.889 322.593 131.293 268 163.142C255.446 170.466 243.339 178.631 231 186.316C225.378 189.817 219.333 192.631 214 196.595C206.742 201.989 199.089 207.057 192.001 212.669C188.181 215.693 185.346 219.8 181 222z"/>
<path style="fill:#081a25; stroke:none;" d="M343 199C343.003 222.586 346.3 246.477 347.91 270C350.898 313.628 352.102 357.375 355.09 401C356.618 423.325 357.561 445.68 359.09 468C360.088 482.585 361.879 497.379 362 512C369.097 509.315 370.991 506.87 378 511C378.168 490.731 379.489 470.266 379.985 450C381.284 396.995 380.715 344.023 382.015 291C382.782 259.667 384 228.41 384 197C377.235 200.036 371.484 211.222 364 211.748C360.897 211.966 358.185 209.048 356 207.246C351.89 203.857 348.278 200.255 343 199M392 198C392 241.725 389.95 285.378 388.039 329C387.091 350.655 387.909 372.348 386.961 394C385.255 432.939 383 471.979 383 511C390.627 507.956 392.802 507.588 400 512C404.844 486.289 406.568 459.997 409.169 434C412.805 397.655 416.651 361.357 420.17 325C422.85 297.303 426.493 269.658 429.17 242C430.523 228.013 433.709 214.099 434 200C428.834 202.173 424.381 205.788 420 209.256C417.76 211.03 415.22 213.594 412.09 213.069C404.047 211.719 400.15 200.218 392 198M334 200C329.387 203.541 325.848 207.868 321.826 212.024C319.99 213.922 317.804 216.447 315 216.759C312.22 217.068 309.257 214.898 307 213.551C302.381 210.795 298.073 207.872 293 206C293.209 216.101 295.756 226.101 297.537 236C300.165 250.604 302.128 265.338 304.586 280C312.577 327.649 319.061 375.392 327.081 423C330.165 441.307 332.738 459.702 335.59 478C337.487 490.169 340.745 502.671 341 515C343.874 513.688 346.82 510.651 350 510.309C352.692 510.02 355.582 512.042 358 513C354.312 493.133 355.742 472.089 353.83 452C348.318 394.081 345.703 335.908 340.17 278C338.624 261.82 337.776 245.236 337.039 229C336.64 220.212 337.418 208.127 334 200M442 201C441.227 218.998 437.427 237.102 435.285 255C431.341 287.966 426.521 321.006 423.169 354C419.297 392.108 413.956 429.998 409.286 468C407.513 482.435 407.375 497.823 404 512C411.915 510.639 415.342 508.924 421 516C423.394 512.03 423.42 507.456 424.36 503C425.907 495.673 427.153 488.405 428.296 481C431.6 459.602 436.339 438.309 440.31 417C449.806 366.042 458.81 314.981 468.31 264C471.803 245.254 477.448 225.999 479 207C473.714 209.22 464.012 218.709 458.093 216.643C451.487 214.336 448.649 204.24 442 201M239 222C239.802 231.188 243.766 240.173 246.254 249C251.433 267.374 257.075 285.623 262.255 304C275.339 350.412 289.555 396.544 302.593 443C309.629 468.069 319.174 492.588 325 518C329.352 516.458 332.33 515.245 337 516C336.344 500.733 331.67 485.153 329.427 470C323.387 429.192 314.805 388.719 308.424 348C303.192 314.611 297.676 281.231 291.46 248C289.036 235.04 288.626 220.352 284 208C278.303 211.383 274.465 217.195 270 221.995C268.268 223.858 266.38 226.469 263.83 227.226C256.516 229.398 246.367 222.734 239 222M487 209C486.273 217.904 483.074 226.282 481.464 235C478.201 252.661 474.772 270.327 471.46 288C461.321 342.096 449.742 395.925 439.54 450C435.336 472.285 428.857 494.508 426 517C431.931 515.093 434.777 515.007 439 520C444.437 513.365 445.517 501.187 447.872 493C454.536 469.836 460.81 446.379 466.665 423C483.807 354.554 505.771 287.192 524 219C517.149 219.687 508.527 227.886 502.043 226.211C495.191 224.442 492.929 212.773 487 209M531 222C519.072 266.62 505.148 310.612 492.427 355C487.191 373.272 482.765 391.788 477.28 410C466.21 446.755 453.558 483.578 445 521C449.153 521.463 451.293 522.842 454 526C460.593 516.881 463.717 504.449 467.59 494C474.283 475.945 481.22 457.915 488.252 440C506.125 394.469 524.521 348.983 541.09 303C545.556 290.606 550.552 278.244 555.449 266C557.815 260.085 560.913 254.313 562 248L563 250C563.991 246.833 564.467 243.304 565 240C566.023 241.534 565.805 241.402 567 242C567.986 240.521 568 240.797 568 239L566 240L567 234C559.132 235.799 551.854 239.2 544 241C542.227 235.017 537.207 223.941 531 222z"/>
<path style="fill:#ebba4d; stroke:none;" d="M178.667 223.333C178.222 223.778 179.278 223.722 179.333 223.667C179.778 223.222 178.722 223.278 178.667 223.333M176 224L177 225L176 224M169 226C170.943 226.622 171.949 226.436 174 226C172.154 225.532 170.931 225.699 169 226M166.667 227.333C166.222 227.778 167.278 227.722 167.333 227.667C167.778 227.222 166.722 227.278 166.667 227.333M142 245C145.062 245.906 147.914 244.704 151 244C152.218 235.911 156.684 231.977 164 229C154.484 227.039 153.342 237.494 148.438 242.297C146.703 243.997 144.261 244.454 142 245z"/>
<path style="fill:#081a25; stroke:none;" d="M565 244L566 245L565 244z"/>
<path style="fill:#ebba4d; stroke:none;" d="M117 253C123.262 254.901 134.906 249.299 141 247C133.76 245.474 124.135 251.349 117 253z"/>
<path style="fill:#081a25; stroke:none;" d="M570.333 250.667C570.278 250.722 570.222 251.778 570.667 251.333C570.722 251.278 570.778 250.222 570.333 250.667M562 252L563 253L562 252z"/>
<path style="fill:#ebba4d; stroke:none;" d="M113 254C114.248 254.685 114.548 254.749 116 255C114.752 254.315 114.452 254.251 113 254M110.667 255.333C110.222 255.778 111.278 255.722 111.333 255.667C111.778 255.222 110.722 255.278 110.667 255.333M107.667 256.333C107.222 256.778 108.278 256.722 108.333 256.667C108.778 256.222 107.722 256.278 107.667 256.333M80 310C75.9724 311.181 73.8049 313.942 71 317.001C64.6902 323.882 59.2665 331.842 54.7315 340C40.2864 365.986 40.0663 400.921 54.5147 427C63.9839 444.092 78.1676 457.653 94 468.721C103.081 475.07 112.112 481.495 121 488.104C124.276 490.54 128.588 492.009 131.582 494.698C135.011 497.779 136.346 503.632 137 508C138.687 503.243 135.433 497.675 134.152 493C130.946 481.304 127.603 469.66 124.29 458C111.672 413.594 98.0209 369.495 85.7068 325C82.5748 313.683 79.7213 302.317 76.5756 291C75.1265 285.787 72.1846 279.386 74.1628 274C78.3014 262.731 95.9237 260.859 106 258C101.781 256.752 96.1322 259.172 92 260.519C87.5582 261.966 82.0214 263.267 78.1852 265.995C64.7956 275.514 78.1882 297.686 80 310M101 276C105.763 277.446 111.416 274.491 116 273C108.127 279.244 98.9475 284.943 94 294L92 294L89 281L97 279C93.6854 277.993 90.3566 279.308 87 280C88.5009 286.547 90.7295 292.703 93 299C100.778 297.217 118.282 295.292 119 286C127.156 284.552 135.01 281.121 143 278.921C147.474 277.689 153.782 277.296 157.682 274.686C161.667 272.019 159.05 262.072 154.772 260.788C150.649 259.55 143.959 263.54 140 264.706C127.095 268.506 114.18 273.272 101 276M672 271C669.021 288.299 658.061 303.904 654 321C661.429 311.183 664.388 296.42 668.811 285C670.494 280.656 673.642 275.632 672 271M98.6667 277.333C98.2223 277.778 99.2778 277.722 99.3333 277.667C99.7779 277.222 98.7222 277.278 98.6667 277.333M126 317C128.158 306.555 147.288 305.72 156 302.586C159.398 301.364 166.704 300.717 166.704 295.961C166.704 292.661 163.988 291.142 160.995 291.384C155.069 291.865 148.654 295.092 143 296.887C138.117 298.438 133.18 301.181 128.004 301.617C124.59 301.905 122.187 299.306 118.91 299.356C115.82 299.404 112.896 301.337 110 302.226C106.025 303.446 100.707 303.451 97.3218 306.089C93.4572 309.1 96.9592 321.738 101.34 323.303C103.704 324.148 106.766 322.802 109 322.065C114.634 320.206 120.207 318.328 126 317M176 329C175.685 325.395 174.993 318.045 170.775 316.788C166.128 315.402 156.528 320.068 152 321.576C146.439 323.427 139.918 326.603 134.015 326.769C130.998 326.853 128.806 324.76 125.91 324.623C120.616 324.373 109.473 327.606 105.319 330.924C101.511 333.965 104.046 346.499 108.43 348.353C113.079 350.32 123.32 345.096 128 343.804C134.402 342.036 140.624 339.744 147 337.908C156.741 335.103 166.332 332.045 176 329M624 333C621.835 331.748 619.148 330.863 617.607 328.772C613.846 323.669 619.456 319.704 624 319C617.938 316.548 612.956 323.252 616.029 328.941C617.748 332.125 620.716 332.752 624 333M625 319C627.85 324.188 627.85 326.812 625 332C630.521 328.503 630.934 322.29 625 319M653 322C648.052 333.111 644.237 344.691 639.797 356C636.054 365.533 631.368 375.006 629 385C632.656 380.165 634.28 373.638 636.424 368C639.987 358.633 643.703 349.315 647.399 340C649.398 334.962 653.94 327.368 653 322M590 333C591.081 331.131 591.863 328.853 593.431 327.314C601.732 319.165 607.172 337.858 596.024 336.168C594.276 335.903 592.548 334.773 591 334C595.461 339.355 607.147 337.842 604.353 329.015C602.735 323.905 596.388 321.959 592.434 325.654C590.295 327.651 590.15 330.276 590 333M570.019 329.877C561.891 332.951 565.719 346.193 573.981 343.377C582.291 340.546 578.5 326.671 570.019 329.877M141 368C141.559 360.65 146.82 360.047 153 358.29C162.586 355.566 172.892 353.032 182 349C181.364 345.629 181.342 339.196 177.606 337.644C173.508 335.941 165.015 339.898 161 341.225C149.188 345.128 136.91 347.967 125 351.66C121.1 352.869 114.523 353.678 111.607 356.727C107.814 360.694 112.269 373.891 118.044 373.768C126.033 373.597 133.084 368.652 141 368M609.019 345.761C600.13 348.959 605.254 362.609 613.895 359.242C622.22 355.999 617.45 342.728 609.019 345.761z"/>
<path style="fill:#081a25; stroke:none;" d="M609.109 346.762C602.293 349.367 605.918 360.742 612.945 358.353C619.97 355.965 616.472 343.947 609.109 346.762z"/>
<path style="fill:#ebba4d; stroke:none;" d="M584.105 351.747C576.002 355.034 580.825 367.834 588.956 365.062C597.806 362.045 593.089 348.102 584.105 351.747z"/>
<path style="fill:#081a25; stroke:none;" d="M585.055 352.836C577.618 355.216 581.442 366.333 588.891 363.392C595.673 360.714 592.035 350.603 585.055 352.836z"/>
<path style="fill:#ebba4d; stroke:none;" d="M559.109 357.758C550.955 360.977 556.285 373.741 564.891 370.106C572.946 366.704 566.839 354.706 559.109 357.758M180.999 367.522C170.461 369.573 160.574 374.947 150 376.853C146.341 377.512 143.542 375.369 140 375.327C134.602 375.263 126.947 378.007 122.059 380.225C115.996 382.974 117.542 397.359 124.224 398.508C129.317 399.385 141.45 395.365 145.701 392.558C148.988 390.388 150.074 386.758 154.005 385.144C161.383 382.115 170.281 380.212 178 378.015C180.86 377.2 185.125 377.037 187.382 374.91C192.022 370.54 184.917 366.76 180.999 367.522M597.059 374.029C588.937 378.434 596.228 389.924 603.941 385.817C612.24 381.399 605.06 369.689 597.059 374.029z"/>
<path style="fill:#081a25; stroke:none;" d="M598.112 374.757C590.77 377.645 596.01 387.736 602.891 385.215C610.084 382.579 605.074 372.018 598.112 374.757z"/>
<path style="fill:#ebba4d; stroke:none;" d="M573.109 378.746C564.937 382.134 570.752 395.763 578.945 391.781C587.352 387.695 581.63 375.214 573.109 378.746z"/>
<path style="fill:#081a25; stroke:none;" d="M573.148 380.032C566.615 383.758 572.12 394.306 578.852 390.778C585.455 387.318 579.961 376.147 573.148 380.032z"/>
<path style="fill:#ebba4d; stroke:none;" d="M547.228 386.028C540.304 390.245 546.415 402.115 553.811 397.968C561.921 393.42 555.307 381.108 547.228 386.028M628 387C623.174 396.476 618.454 407.646 616 418C620.567 412.341 622.504 403.741 625.2 397C626.494 393.763 628.291 390.502 628 387M124 407L129 425C146.55 420.94 163.483 414.248 181 410C184.849 409.066 196.667 407.385 197.512 402.772C198.194 399.046 196.255 392.091 191.945 391.503C188.331 391.01 184.289 393.589 181 394.761C173.335 397.491 164.912 400.501 157.004 402.347C152.851 403.317 150.033 400.025 145.985 400.383C138.854 401.015 130.763 404.691 124 407M593 401C593.765 402.597 595.018 404.335 595.346 406.093C597.253 416.312 580.175 413.141 585.617 404.228C586.173 403.319 587.157 402.744 588.014 402.178C589.24 401.369 590.613 401.281 592 401C583.799 397.837 579.657 410.006 587.059 413.806C591.579 416.126 597.547 412.078 597.224 407.004C597.043 404.165 595.023 402.609 593 401M562.109 406.743C554.113 410.12 560.128 422.056 567.945 419.091C577.028 415.646 570.658 403.132 562.109 406.743z"/>
<path style="fill:#081a25; stroke:none;" d="M562.279 408.029C556.379 411.721 561.659 420.992 567.856 417.778C574.853 414.149 568.993 403.827 562.279 408.029z"/>
<path style="fill:#ebba4d; stroke:none;" d="M196.981 412.523C182.838 413.889 167.486 420.978 154 425.329C147.911 427.294 139.721 428.063 134.319 431.572C129.598 434.638 133.927 448.711 139.185 449.498C141.107 449.785 143.181 448.917 145 448.424C149.782 447.125 157.683 446.674 161.401 443.157C164.252 440.461 163.816 437.262 168.019 435.562C176.289 432.219 185.523 430.391 194 427.439C196.472 426.578 200.352 426.538 202.382 424.825C206.392 421.439 202.054 412.033 196.981 412.523M537.059 412.746C529.04 415.979 535.061 428.305 542.891 425.102C551.117 421.737 545.427 409.372 537.059 412.746M615 419C608.579 435.644 602.373 452.362 595.939 469C592.603 477.628 588.094 485.953 586 495C589.777 489.952 591.602 482.839 594.011 477C599.056 464.773 603.718 452.361 608.424 440C610.661 434.127 616.1 425.273 615 419M577.044 427.708C568.446 429.898 571.762 444.062 580.956 441.562C589.492 439.241 585.489 425.556 577.044 427.708z"/>
<path style="fill:#081a25; stroke:none;" d="M576.148 429.747C569.766 432.498 574.142 442.91 580.942 440.381C588.303 437.645 583.262 426.681 576.148 429.747z"/>
<path style="fill:#ebba4d; stroke:none;" d="M553 433C554.545 433.896 556.413 434.57 557.786 435.728C568.168 444.48 544.57 450.542 549.512 437.714C549.982 436.493 551.08 435.82 552 435C544.318 434.824 547.181 447.851 555 447.301C560.437 446.919 563.737 440.674 560.396 436.148C558.521 433.609 555.906 433.219 553 433M527.044 439.758C518.37 443.003 523.061 455.756 531.981 452.257C540.585 448.882 535.229 436.695 527.044 439.758M212 450C211.378 446.576 210.256 442.373 205.957 442.523C201.939 442.664 197.743 444.929 194 446.204C187.239 448.509 179.033 451.452 172 452.514C168.767 453.002 166.143 451.608 163 451.433C157.923 451.15 151.823 453.748 147 455.202C144.996 455.806 142.168 456.379 140.643 457.924C137.595 461.01 141.642 472.845 145.415 474.306C150.141 476.136 160.428 471.276 164.981 469.637C168.918 468.22 169.313 465.325 172.313 463.002C175.167 460.791 179.58 459.883 183 458.909C192.693 456.149 202.191 452.269 212 450M565.059 455.746C556.764 459.09 562.692 472.174 570.945 469.218C580.242 465.887 574.139 452.086 565.059 455.746z"/>
<path style="fill:#081a25; stroke:none;" d="M565.148 457.032C558.253 461.01 564.877 471.654 571.771 467.047C578.1 462.818 571.562 453.331 565.148 457.032z"/>
<path style="fill:#ebba4d; stroke:none;" d="M545 461C546.103 462.295 547.467 463.602 548.272 465.115C552.9 473.81 536.649 476.641 538.186 466.439C538.376 465.178 539.386 464.194 540.223 463.335C541.299 462.23 542.669 461.698 544 461C535.7 458.803 533.506 472.84 542.015 474.663C551.233 476.638 553.758 463.601 545 461M146 483L151 501C159.99 499.838 168.37 496.168 177 493.569C189.7 489.744 203.865 487.251 215.941 481.717C220.849 479.468 220.797 472.299 217.076 468.644C213.731 465.356 202.812 470.976 199 472.194C192.471 474.282 184.913 477.977 178 478.262C174.481 478.407 171.576 475.985 168 476.434C160.783 477.339 152.93 480.746 146 483M515.059 468.029C506.944 472.414 514.449 484.013 521.891 479.968C530.049 475.533 522.895 463.794 515.059 468.029M153 508C153.699 513.189 155.386 518.038 157 523C157.58 520.251 156.624 517.75 156 515L165 524C170.337 522.616 178.097 521.951 182.687 518.836C186.217 516.44 186.477 512.657 191.005 510.954C201.196 507.12 214.252 507.09 223.681 501.487C227.43 499.259 225.557 491.157 222.428 489.032C217.906 485.959 208.54 491.302 204 492.718C187.088 497.992 170.121 503.423 153 508M585 496C581.245 507.031 575.635 517.615 573 529C577.722 522.689 579.952 513.385 582.681 506C583.895 502.716 585.72 499.48 585 496M138 510L141 522C142.221 517.978 140.452 513.29 138 510M162 541C162.888 538.54 162.467 536.585 162 534C166.428 532.976 170.681 531.405 175 530C176.514 536.369 181.296 541.04 187 544C181.903 546.196 176.435 547.864 171 549C176.596 550.984 184.53 546.247 190 544.566C204.899 539.985 219.91 534.763 235 531C234.59 525.986 233.116 521.546 231 517C219.002 520.182 207.145 525.854 195 528.093C191.242 528.785 188.608 526.867 185 526.762C182.348 526.685 179.544 527.73 177 528.374C173.24 529.326 163.328 530.358 161.693 534.417C160.923 536.329 161.759 539.041 162 541M142 523L147 542C148.452 537.089 144.939 527.124 142 523M158 524L158 526L164 525C162.009 524.198 160.153 524.171 158 524M572 530L569 539C571.155 536.329 572.711 533.438 572 530M568 540L566 547C567.707 544.706 568.589 542.826 568 540M163 542L164 547C164.473 544.857 164.133 543.899 163 542M148 543L148 547C148.71 545.24 148.71 544.76 148 543M476.667 546.333C476.222 546.778 477.278 546.722 477.333 546.667C477.778 546.222 476.722 546.278 476.667 546.333M479 547C481.222 548.663 483.295 549.355 486 550C483.778 548.337 481.705 547.645 479 547M149 548L150 553C150.651 550.766 150.318 549.926 149 548M165 548L165 552L170 551L165 548M565 548L562 557C564.155 554.329 565.711 551.438 565 548M487 550C488.921 551.455 490.711 552.203 493 553C491.047 551.276 489.537 550.655 487 550M495 553L496 554L495 553M151 554L151 557C151.696 555.446 151.696 555.554 151 554M497 554C498.458 555.081 499.248 555.436 501 556C499.542 554.919 498.752 554.564 497 554M502 556L503 557L502 556M504 557C507.242 559.451 511.159 560.701 515 562C511.864 559.178 508.078 557.966 504 557M152 558C153.06 562.061 154.649 564.471 158 567L152 558M561 558C558.387 564.234 553.756 571.877 546 571.711C542.303 571.631 538.582 569.829 535 569C543.62 575.889 563.295 571.79 561 558M194 561C196.163 561.676 197.732 561.387 200 561C197.836 560.324 196.268 560.613 194 561M188 563C189.846 563.468 191.069 563.301 193 563C191.057 562.378 190.051 562.564 188 563M517 562L518 563L517 562M519 563C521.222 564.663 523.295 565.355 526 566C523.778 564.337 521.705 563.645 519 563M171 568C176.035 569.529 182.014 566.154 187 565C182.173 563.326 175.878 566.882 171 568M527 566C529.248 567.799 531.163 568.493 534 569C531.764 567.515 529.591 566.713 527 566M159 567C160.631 568.366 162.038 569.142 164 570C162.314 568.344 161.254 567.749 159 567M165 569C166.248 569.685 166.548 569.749 168 570C166.752 569.315 166.452 569.251 165 569z"/>
</svg>
