<svg xmlns="http://www.w3.org/2000/svg" viewBox="0 0 500 500" width="100%" height="100%">
  <path d="M 380 150 C 420 200, 360 300, 300 380 C 220 440, 150 420, 100 350 C 20 260, 20 180, 80 120 C 150 50, 320 80, 380 150 Z" fill="#facf58" />

  <g stroke="#1a5b8f" stroke-width="10" stroke-linecap="round" stroke-linejoin="round">
    
    <rect x="80" y="150" width="340" height="200" rx="8" fill="none" />

    <line x1="128.6" y1="150" x2="128.6" y2="350" />
    <line x1="177.1" y1="150" x2="177.1" y2="350" />
    <line x1="225.7" y1="150" x2="225.7" y2="350" />
    <line x1="274.3" y1="150" x2="274.3" y2="350" />
    <line x1="322.9" y1="150" x2="322.9" y2="350" />
    <line x1="371.4" y1="150" x2="371.4" y2="350" />
  </g>

  <g fill="#1a5b8f">
    <rect x="114.6" y="145" width="28" height="125" rx="4" />
    <rect x="163.1" y="145" width="28" height="125" rx="4" />

    <rect x="260.3" y="145" width="28" height="125" rx="4" />
    <rect x="308.9" y="145" width="28" height="125" rx="4" />
    <rect x="357.4" y="145" width="28" height="125" rx="4" />
  </g>
</svg>
