<svg version="1.2" xmlns="http://www.w3.org/2000/svg" viewBox="0 0 720 720" width="720" height="720">
	<style>
		.s0 { fill: #005fad } 
		.s1 { fill: #36c7f3 } 
		.s2 { fill: #fcb712 } 
	</style>
	<path id="&lt;Path&gt;" class="s0" d="m192.01 378.85l3.05-3.04c23.63-22.87 55.8-36.97 91.28-36.97 10.19 0 20.09 1.2 29.6 3.39 23.65 5.45 44.84 17.27 61.69 33.58q1.55 1.5 3.04 3.04v-3.04-142.69-115.29-59.12-9.24-36.98h-75.27c-62.62 0-113.39 50.77-113.39 113.39z"/>
	<path id="&lt;Path&gt;" class="s1" d="m118.82 305.53h37.78v-17.01h-37.78z"/>
	<path id="&lt;Path&gt;" class="s1" d="m137.71 278.93c10.96 0 19.84-8.88 19.84-19.84 0-10.96-8.88-19.84-19.84-19.84-10.96 0-19.84 8.88-19.84 19.84 0 10.96 8.88 19.84 19.84 19.84z"/>
	<path id="&lt;Path&gt;" class="s1" d="m96.76 239.25h-52.54v28.97l52.54 69.65z"/>
	<path id="&lt;Path&gt;" class="s1" d="m61.18 308.9l-52.54-69.65v98.62h52.54z"/>
	<path id="&lt;Path&gt;" class="s1" d="m547.17 216.19q8.68-13.78 18.81-26.64c21.05-26.75 46.67-50.3 76.33-69.3-14.37 2.47-28.7 6.55-42.74 12.35-24.21 10.01-45.4 24.24-63.09 41.47-35.39-14.97-75.05-19.8-114.25-12.51 33.19 6.48 65.11 18.3 94.45 34.94 10.51 5.96 20.7 12.53 30.49 19.69z"/>
	<path id="&lt;Path&gt;" class="s1" d="m579.48 310c21.08 26.77 34.57 61.35 38.2 71.95 26.96-5.51 60.75-6.06 83.53-2.99-7.61-4.9-34.92-24.13-67.69-19.87-10.8-19.63-29.22-37.1-54.04-49.09z"/>
	<path id="&lt;Compound Path&gt;" fill-rule="evenodd" class="s2" d="m599.58 470.15c0 131.45-107.61 238.02-240.35 238.02-132.75 0-240.36-106.57-240.36-238.02q0.01-0.19 0.01-0.38h0.15l18.39 18.39 17.62-17.62c0.21 72.34 58.91 130.92 131.3 130.92 72.52 0 131.31-58.79 131.31-131.31 0-1.43-0.06-2.85-0.11-4.28h0.11v-226.62c104.5 25.85 181.93 119.4 181.93 230.9zm-105.83-129.84c0-8.55-6.94-15.49-15.49-15.49-8.56 0-15.5 6.94-15.5 15.49 0 8.56 6.94 15.49 15.5 15.49 8.55 0 15.49-6.93 15.49-15.49z"/>
	<path id="&lt;Path&gt;" class="s2" d="m559.28 40.85l28.97-28.34h-169.94v56.69h169.94z"/>
</svg>