<svg version="1.2" xmlns="http://www.w3.org/2000/svg" viewBox="0 0 720 720" width="720" height="720">
	<style>
		.s0 { fill: #005fad } 
		.s1 { fill: #fcb712 } 
	</style>
	<path id="&lt;Path&gt;" class="s0" d="m192.01 378.85l3.05-3.04c23.63-22.87 55.8-36.97 91.28-36.97 10.19 0 20.09 1.2 29.6 3.39 23.65 5.45 44.84 17.27 61.69 33.58q1.55 1.5 3.04 3.04v-3.04-142.69-115.29-59.12-9.24-36.98h-75.27c-62.62 0-113.39 50.77-113.39 113.39z"/>
	<path id="&lt;Compound Path&gt;" fill-rule="evenodd" class="s1" d="m599.58 470.15c0 131.45-107.61 238.02-240.35 238.02-132.75 0-240.36-106.57-240.36-238.02q0.01-0.19 0.01-0.38h0.15l18.39 18.39 17.62-17.62c0.21 72.34 58.91 130.92 131.3 130.92 72.52 0 131.31-58.79 131.31-131.31 0-1.43-0.06-2.85-0.11-4.28h0.11v-226.62c104.5 25.85 181.93 119.4 181.93 230.9zm-105.83-129.84c0-8.55-6.94-15.49-15.49-15.49-8.56 0-15.5 6.94-15.5 15.49 0 8.56 6.94 15.49 15.5 15.49 8.55 0 15.49-6.93 15.49-15.49z"/>
	<path id="&lt;Path&gt;" class="s1" d="m559.28 40.85l28.97-28.34h-169.94v56.69h169.94z"/>
</svg>