<svg version="1.2" xmlns="http://www.w3.org/2000/svg" viewBox="0 0 478 449" width="478" height="449">
	<style>
		.s0 { fill: #fcb712 } 
	</style>
	<path id="&lt;Compound Path&gt;" fill-rule="evenodd" class="s0" d="m468.36 305.34l-196.26-113.31-0.05 0.09c-1.21-0.75-2.41-1.51-3.65-2.23-62.8-36.26-143.11-14.74-179.37 48.06-36.2 62.69-14.81 142.82 47.73 179.17l-24.07 6.45 6.73 25.12-0.08 0.13q-0.16-0.09-0.33-0.18c-113.84-65.73-152.32-212.2-85.95-327.16 66.37-114.96 212.46-154.87 326.3-89.15 96.56 55.75 138.87 169.58 109 273.01zm-49.47-116.43c-7.42-4.28-16.88-1.75-21.16 5.67-4.28 7.42-1.75 16.88 5.67 21.16 7.42 4.28 16.88 1.75 21.16-5.67 4.28-7.42 1.75-16.88-5.67-21.16z"/>
</svg>