<svg version="1.2" xmlns="http://www.w3.org/2000/svg" viewBox="0 0 1304 1304" width="1304" height="1304">
	<style>
		.s0 { fill: #005fad } 
		.s1 { fill: #36c7f3 } 
		.s2 { fill: #fcb712 } 
	</style>
	<g id="Layer 1">
		<g id="&lt;Group&gt;">
			<path id="&lt;Path&gt;" class="s0" d="m725.26 1160.37c-18.79 5.31-36.54 10.33-72.99 10.33-36.46 0-54.21-5.02-73-10.33-20.11-5.68-40.91-11.56-81.91-11.56-26.13 0-44.04 2.39-58.81 5.59 27.45 11.7 56.06 21.19 85.6 28.3 19.09 1.7 31.87 5.18 44.9 8.85 27.12 4.15 54.9 6.31 83.18 6.31 28.35 0 56.19-2.17 83.37-6.34 12.96-3.66 25.7-7.11 44.66-8.81 29.56-7.11 58.2-16.61 85.67-28.32-14.76-3.2-32.66-5.58-58.76-5.58-41 0-61.8 5.88-81.91 11.56z"/>
			<path id="&lt;Path&gt;" class="s0" d="m453.51 949.71c-15.22 2.24-26.75 5.5-38.06 8.69-18.79 5.32-36.54 10.33-72.99 10.33-36.46 0-54.21-5.01-73-10.33-19.2-5.42-39.07-11.01-76.47-11.51q11.26 17.5 23.79 34.06c18.38 1.83 30.82 5.35 43.76 9 20.11 5.69 40.92 11.57 81.92 11.57 41 0 61.8-5.88 81.91-11.57 16.91-4.77 33.02-9.3 62.62-10.16-11.98-9.1-23.16-19.18-33.48-30.08z"/>
			<path id="&lt;Path&gt;" class="s0" d="m962.07 968.73c-36.45 0-54.2-5.01-72.99-10.33-11.33-3.2-22.88-6.46-38.12-8.7-10.33 10.91-21.51 20.99-33.5 30.08 29.65 0.86 45.78 5.39 62.7 10.17 20.11 5.69 40.91 11.57 81.91 11.57 40.99 0 61.79-5.88 81.9-11.57 12.92-3.65 25.35-7.16 43.7-9q12.53-16.56 23.8-34.06c-37.38 0.5-57.24 6.09-76.42 11.51-18.79 5.32-36.53 10.33-72.98 10.33z"/>
			<path id="&lt;Path&gt;" class="s0" d="m1035.05 756.44c-18.79 5.31-36.53 10.33-72.98 10.33-14.71 0-26.34-0.83-36.26-2.15-0.12 11.1-0.92 22.03-2.32 32.78 10.71 1.33 23.23 2.15 38.58 2.15 40.99 0 61.79-5.88 81.9-11.56 18.78-5.31 36.53-10.33 72.98-10.33 30.89 0 48.34 3.61 64.38 7.94q3.98-15.86 7.02-32.07c-17.34-4.62-37.43-8.66-71.4-8.66-40.99 0-61.79 5.88-81.9 11.57z"/>
			<path id="&lt;Path&gt;" class="s0" d="m342.46 799.55c15.32 0 27.81-0.82 38.51-2.14-1.41-10.75-2.21-21.68-2.33-32.78-9.9 1.32-21.51 2.14-36.18 2.14-36.46 0-54.21-5.02-73-10.33-20.12-5.69-40.92-11.57-81.93-11.57-33.98 0-54.08 4.05-71.42 8.67q3.04 16.2 7.02 32.06c16.04-4.33 33.5-7.94 64.4-7.94 36.46 0 54.21 5.02 73.01 10.33 20.11 5.68 40.92 11.56 81.92 11.56z"/>
			<path id="&lt;Compound Path&gt;" fill-rule="evenodd" class="s0" d="m120.39 682.39q-6.99-4.42-10.9-12.34-3.9-7.92-3.88-18.44 0.02-10.52 3.96-18.43 3.94-7.91 10.95-12.32 7.02-4.41 16.38-4.4 9.37 0.01 16.36 4.44 7 4.43 10.91 12.34 3.9 7.92 3.88 18.44-0.02 10.53-3.96 18.43-3.94 7.91-10.96 12.32-7.01 4.41-16.37 4.4-9.37-0.01-16.37-4.44zm-0.39-19.44q2.31 4.82 6.62 7.44 4.32 2.61 10.17 2.62 5.84 0.01 10.17-2.6 4.33-2.6 6.66-7.42 2.33-4.81 2.34-11.32 0.02-6.59-2.3-11.37-2.31-4.78-6.62-7.4-4.32-2.61-10.17-2.62-5.84-0.01-10.17 2.6-4.33 2.6-6.66 7.38-2.33 4.78-2.34 11.37-0.02 6.5 2.3 11.32z"/>
			<path id="&lt;Compound Path&gt;" fill-rule="evenodd" class="s0" d="m120.19 588.9q-5.03-0.53-10.25-0.84l9.41-55.69 47.36 8.01 1.76-10.38 23.91 4.04-2.13 12.6-12.08-2.05-9.06 53.63 12.07 2.04-2.13 12.6-23.91-4.04 1.27-7.55q-3.21-3.82-9.65-6.54-6.63-2.79-16.97-4.54-4.58-0.77-9.6-1.29zm38.71-1.37l5.71-33.74-35.84-6.05-4.91 29.04q1.77 0.16 3.51 0.37 3.89 0.5 7.29 1.07 9.63 1.63 16.04 4.26c3.55 1.46 6.25 3.15 8.2 5.05z"/>
			<path id="&lt;Path&gt;" class="s0" d="m183.67 522.54l17.23-51.41-10.7-3.6-12.53 37.39-12.14-6.34 11.06-33-9.87-3.31-11.06 33-13.5-2.29 12.4-36.99-10.7-3.6-17.1 51.03 29.94 5.14z"/>
			<path id="&lt;Path&gt;" class="s0" d="m177.61 447.97q8.34 4.24 16.55 3.55 8.21-0.7 15.2-5.83 7.01-5.14 11.65-14.31 4.21-8.31 4.64-16.25 0.43-7.93-2.73-14.54-3.16-6.6-9.54-10.84l-6.21 12.25q3.5 2.67 5.04 6.44 1.55 3.76 1.13 8.23-0.42 4.47-2.93 9.41-2.87 5.66-7.06 8.71-4.19 3.05-9.21 3.29-5.01 0.25-10.29-2.44-5.28-2.68-8.05-6.88-2.76-4.19-2.78-9.39-0.02-5.19 2.85-10.85 2.5-4.94 5.89-7.9 3.38-2.97 7.33-3.94 3.95-0.97 8.09 0.24l6.21-12.25q-7.25-2.69-14.4-1.33-7.16 1.37-13.3 6.4-6.14 5.03-10.35 13.34-4.65 9.17-4.65 17.87-0.01 8.69 4.28 15.73 4.29 7.04 12.64 11.29z"/>
			<path id="&lt;Compound Path&gt;" fill-rule="evenodd" class="s0" d="m242.2 390.37l-48.85-34.93 7.92-11.12 16.54 11.83 10.99-15.43q4.2-5.89 9.24-8.7 5.05-2.8 10.35-2.52 5.31 0.29 10.12 3.73 4.82 3.45 6.82 8.38 1.99 4.93 0.99 10.63-1.02 5.69-5.2 11.58zm-15.6-27.94l14.72 10.53 10.57-14.84q2.75-3.87 2.37-7.54-0.37-3.68-3.77-6.1-3.38-2.42-6.98-1.59-3.59 0.84-6.34 4.7z"/>
			<path id="&lt;Path&gt;" class="s0" d="m290.69 327.06l-3.73-30.94 27.59 5.99 10.77-11.25-40-8.36-3.93-32.63-10.05 10.5 6.85 52.89-29.93-28.76-9.38 9.8 43.32 41.63z"/>
			<path id="&lt;Compound Path&gt;" fill-rule="evenodd" class="s0" d="m327.96 288.26l-14.07-64.94 13.89-10.63 58.78 30.68-11.53 8.83-12.21-6.6-26.47 20.28 3.14 13.54zm-0.76-61.89l6.41 27.68 18.55-14.2z"/>
			<path id="&lt;Path&gt;" class="s0" d="m501.32 187.14l-24.11-55.09-12.48 5.49 19.29 44.08-25.1 11.06-19.29-44.08-12.48 5.5 19.29 44.07-25.1 11.05-19.29-44.07-12.48 5.5 24.11 55.09z"/>
			<path id="&lt;Path&gt;" class="s0" d="m528.54 181.33l13.85-27.92 19.75 20.21 15.15-3.47-28.8-29.03 14.61-29.44-14.15 3.24-23.28 47.99-9.22-40.54-13.21 3.03 13.34 58.67z"/>
			<path id="&lt;Compound Path&gt;" fill-rule="evenodd" class="s0" d="m577.93 139.66q-0.7-9.37 3.18-16.7 3.87-7.33 11.45-11.85 7.58-4.51 18.05-5.31 10.47-0.79 18.63 2.53 8.17 3.33 13.08 9.99 4.92 6.67 5.62 16.04 0.69 9.36-3.18 16.69-3.88 7.33-11.46 11.85-7.58 4.52-18.04 5.31-10.48 0.79-18.64-2.53-8.16-3.32-13.08-10-4.91-6.66-5.61-16.02zm13.74-1.05q0.44 5.85 3.36 9.97 2.92 4.12 7.89 6.08 4.96 1.96 11.44 1.46 6.55-0.49 11.13-3.17 4.58-2.68 6.86-7.2 2.27-4.51 1.84-10.36-0.44-5.83-3.35-9.96-2.92-4.13-7.85-6.08-4.93-1.96-11.48-1.47-6.47 0.49-11.1 3.17-4.62 2.69-6.9 7.21-2.27 4.51-1.84 10.35z"/>
			<path id="&lt;Path&gt;" class="s0" d="m665.63 166.13q6.86 0.6 11.39-2.39 4.52-2.99 7.14-9.93 2.62-6.94 3.61-18.29 0.41-4.72 0.6-10.1 0.11-3.29 0.1-6.76l29.19 2.53-4.19 47.97 13.49 1.17 5.24-59.95-56.37-4.9q0.17 8.16-0.01 14.9-0.19 6.75-0.65 12.03-1.02 11.67-3.95 16.61-2.92 4.95-8.51 4.46-2.95-0.26-6.27-1.92l-0.99 11.35q2.14 1.32 4.8 2.15 2.66 0.84 5.38 1.07z"/>
			<path id="&lt;Compound Path&gt;" fill-rule="evenodd" class="s0" d="m750.94 175.34l-14.04-3.6 42.17-51.32 16.93 4.34 12.31 65.29-14.05-3.6-2.39-13.71-32.25-8.27zm16.25-20.35l22.6 5.79-4.87-27.99z"/>
			<path id="&lt;Path&gt;" class="s0" d="m872.22 164.4l-2.31 52.85 12.44 6.47 41.76-32.29-22.06 42.54 11.52 5.99 27.7-53.42-18.56-9.65-40.57 32.01 2.81-51.65-18.55-9.66-27.7 53.42 11.45 5.96z"/>
			<path id="&lt;Path&gt;" class="s0" d="m939.69 259.81l56.35-16.15-29.31 37.41 10.46 8.23 37.09-47.36-13.93-10.95-55.52 15.89 28.86-36.86-10.45-8.22-37.09 47.35z"/>
			<path id="&lt;Path&gt;" class="s0" d="m999.77 292.02q-2.25 7.94 0.08 16.31 2.33 8.37 9.26 15.95 6.28 6.86 13.54 10.05 7.26 3.19 14.54 2.54 7.28-0.65 13.49-5.15l-9.25-10.12q-3.74 2.34-7.79 2.47-4.06 0.14-8.09-1.83-4.02-1.97-7.76-6.05-4.27-4.68-5.64-9.68-1.38-5 0.17-9.8 1.53-4.78 5.91-8.8 4.36-4.02 9.26-5.14 4.89-1.12 9.75 0.68 4.85 1.81 9.13 6.49 3.73 4.08 5.31 8.3 1.57 4.21 1.08 8.25-0.48 4.05-3.07 7.51l9.25 10.13q5.08-5.86 6.32-13.06 1.25-7.18-1.29-14.71-2.53-7.53-8.81-14.4-6.93-7.57-15.04-10.63-8.12-3.05-16.21-1.5-8.09 1.55-14.99 7.9-6.91 6.35-9.15 14.29z"/>
			<path id="&lt;Path&gt;" class="s0" d="m1049.32 372.35l7.46 11.32 40.08-26.57 13.16 19.97 10.03-6.65-33.83-51.31-10.02 6.64 13.2 20.03z"/>
			<path id="&lt;Path&gt;" class="s0" d="m1074.92 411.7l24.1 48.52 10.1-5.04-17.52-35.28 13.06-4.15 15.47 31.15 9.31-4.66-15.46-31.14 11.16-7.96 17.34 34.92 10.11-5.05-23.92-48.16-24.81 17.59z"/>
			<path id="&lt;Path&gt;" class="s0" d="m1122.41 528.78l-11.67 3.73 3.86 12.17 23.11-7.38-3.18-10.03 45.78-14.62-4.1-12.93-45.78 14.62-10.17-32.07 45.78-14.62-4.13-13.01-57.21 18.28z"/>
			<path id="&lt;Path&gt;" class="s0" d="m1177.75 560.25l-47.42 7.69 2.15 13.4 47.42-7.7 3.8 23.63 11.85-1.92-9.75-60.74-11.86 1.92z"/>
			<path id="&lt;Compound Path&gt;" fill-rule="evenodd" class="s0" d="m1197.7 654.21q0.11 8.35-3.7 13.03-3.82 4.68-10.62 4.78-3.68 0.06-7.15-1.62-3.47-1.68-5.88-5.53-0.57-0.91-1.04-1.98c-0.33 1.63-0.76 3.14-1.33 4.47q-1.98 4.6-5.42 6.83-3.45 2.22-7.94 2.29-4.8 0.07-8.6-2.16-3.79-2.23-6.01-6.61-2.23-4.39-2.32-11.05l-0.61-42.25 30.88 4.18 29.15-5.1zm-34.14-2.45l-0.3-20.76-15.96-2.23 0.36 24.92q0.05 4.34 2.14 6.68 2.07 2.33 5.75 2.27 3.76-0.05 5.93-2.82 2.16-2.76 2.08-8.06zm24.08-1.42l-0.32-22.13-14.29 2.59 0.27 19.2q0.05 3.62 2.13 5.95 2.07 2.34 5.76 2.29 2.8-0.05 4.65-2.09 1.86-2.03 1.8-5.81z"/>
			<path id="&lt;Path&gt;" class="s0" d="m485.01 670.85l3.05-3.04c23.63-22.87 55.8-36.97 91.28-36.97 10.19 0 20.09 1.2 29.6 3.39 23.65 5.45 44.84 17.27 61.69 33.58q1.55 1.5 3.04 3.04v-3.04-142.69-115.29-59.12-9.24-36.98h-75.27c-62.62 0-113.39 50.77-113.39 113.39z"/>
		</g>
		<path id="&lt;Path&gt;" class="s1" d="m889.08 1059.39c-20.12-5.69-40.91-11.57-81.91-11.57-41 0-61.8 5.88-81.91 11.57-18.79 5.31-36.54 10.33-72.99 10.33-36.45 0-54.2-5.02-73-10.33-20.11-5.69-40.91-11.57-81.91-11.57-41 0-61.8 5.88-81.91 11.57-18.79 5.31-36.54 10.33-72.99 10.33-19.68 0-33.89-1.47-45.77-3.65 15.08 12.98 30.9 25.13 47.36 36.42 39.92-0.15 60.47-5.94 80.32-11.55 18.79-5.31 36.54-10.33 72.99-10.33 36.46 0 54.2 5.02 73 10.33 20.11 5.68 40.91 11.57 81.91 11.57 41 0 61.8-5.89 81.91-11.57 18.79-5.31 36.54-10.33 72.99-10.33 36.45 0 54.2 5.02 72.99 10.33 19.83 5.6 40.37 11.39 80.25 11.55 16.45-11.28 32.26-23.44 47.34-36.41-11.86 2.17-26.05 3.64-45.68 3.64-36.45 0-54.2-5.02-72.99-10.33z"/>
		<path id="&lt;Path&gt;" class="s1" d="m411.78 892.43c-5.31-9.74-9.98-19.88-14.09-30.29-13.83 3.22-30.08 5.61-55.23 5.61-36.46 0-54.21-5.01-73-10.33-20.12-5.68-40.92-11.56-81.93-11.56-18.19 0-32.4 1.16-44.34 2.94q6.15 15.94 13.26 31.37c8.76-0.95 18.85-1.52 31.08-1.52 36.46 0 54.21 5.01 73.01 10.32 20.11 5.69 40.92 11.57 81.92 11.57 32.62 0 52.44-3.73 69.32-8.11z"/>
		<path id="&lt;Path&gt;" class="s1" d="m1116.95 845.86c-40.99 0-61.79 5.88-81.9 11.56-18.79 5.32-36.53 10.33-72.98 10.33-25.2 0-41.45-2.4-55.3-5.63-4.11 10.42-8.78 20.55-14.08 30.29 16.88 4.39 36.72 8.13 69.38 8.13 40.99 0 61.79-5.88 81.9-11.57 18.78-5.31 36.53-10.32 72.98-10.32 12.22 0 22.3 0.57 31.06 1.52q7.1-15.44 13.26-31.37c-11.94-1.78-26.14-2.94-44.32-2.94z"/>
		<path id="&lt;Path&gt;" class="s1" d="m411.82 597.53h37.78v-17.01h-37.78z"/>
		<path id="&lt;Path&gt;" class="s1" d="m430.71 570.93c10.96 0 19.84-8.88 19.84-19.84 0-10.96-8.88-19.84-19.84-19.84-10.96 0-19.84 8.88-19.84 19.84 0 10.96 8.88 19.84 19.84 19.84z"/>
		<path id="&lt;Path&gt;" class="s1" d="m389.76 531.25h-52.54v28.97l52.54 69.65z"/>
		<path id="&lt;Path&gt;" class="s1" d="m354.18 600.9l-52.54-69.65v98.62h52.54z"/>
		<path id="&lt;Path&gt;" class="s1" d="m840.17 508.19q8.68-13.78 18.81-26.64c21.05-26.75 46.67-50.3 76.33-69.3-14.37 2.47-28.7 6.55-42.74 12.35-24.21 10.01-45.4 24.24-63.09 41.47-35.39-14.97-75.05-19.8-114.25-12.51 33.19 6.48 65.11 18.3 94.45 34.94 10.51 5.96 20.7 12.53 30.49 19.69z"/>
		<path id="&lt;Path&gt;" class="s1" d="m872.48 602c21.08 26.77 34.57 61.35 38.2 71.95 26.96-5.51 60.75-6.06 83.53-2.99-7.61-4.9-34.92-24.13-67.69-19.87-10.8-19.63-29.22-37.1-54.04-49.09z"/>
		<g id="&lt;Group&gt;">
			<path id="&lt;Compound Path&gt;" fill-rule="evenodd" class="s2" d="m892.58 762.15c0 131.45-107.61 238.02-240.35 238.02-132.75 0-240.36-106.57-240.36-238.02q0.01-0.19 0.01-0.38h0.15l18.39 18.39 17.62-17.62c0.21 72.34 58.91 130.92 131.3 130.92 72.52 0 131.31-58.79 131.31-131.31 0-1.43-0.06-2.85-0.11-4.28h0.11v-226.62c104.5 25.85 181.93 119.4 181.93 230.9zm-105.83-129.84c0-8.55-6.94-15.49-15.49-15.49-8.56 0-15.5 6.94-15.5 15.49 0 8.56 6.94 15.49 15.5 15.49 8.55 0 15.49-6.93 15.49-15.49z"/>
			<path id="&lt;Path&gt;" class="s2" d="m852.28 332.85l28.97-28.34h-169.94v56.69h169.94z"/>
		</g>
	</g>
</svg>